<svg xmlns="http://www.w3.org/2000/svg" viewBox="0 0 18 19.13"><defs><style>.cls-1{fill:#fafafa}</style></defs><g id="Layer_2"><g id="Layer_1-2"><path class="cls-1" d="M12.3 16.38a7.22 7.22 0 0 1-1 .38 9.35 9.35 0 0 0 .93-1L12 14.4a8.56 8.56 0 0 1-2.55 2.5v-3.83a8.22 8.22 0 0 1 2.46.55l-.14-1a9.43 9.43 0 0 0-2.32-.44V9.49h4.13a10.09 10.09 0 0 1-.34 2.2l.81.67a10.54 10.54 0 0 0 .51-2.87h2.46a8.07 8.07 0 0 1-1.43 4.13l.72.59A9 9 0 0 0 15.66 3l-.34-.33A8.94 8.94 0 0 0 10 .07h-.09L9.54 0h-.86a.41.41 0 0 0-.19 0H8a8.94 8.94 0 0 0-5.34 2.64L2.32 3a9 9 0 0 0 0 12.09l.34.33A8.87 8.87 0 0 0 8 18h.42a.58.58 0 0 0 .18 0H10a9 9 0 0 0 2.46-.62Zm4.76-7.82H14.6a10.88 10.88 0 0 0-.91-4 9.43 9.43 0 0 0 1.31-1 8.05 8.05 0 0 1 2.06 5ZM14.33 3a8.18 8.18 0 0 1-1.06.8 9.58 9.58 0 0 0-2-2.48A8 8 0 0 1 14.33 3ZM9.49 1.15a8.46 8.46 0 0 1 2.92 3.08A7.91 7.91 0 0 1 9.49 5Zm0 4.75a8.83 8.83 0 0 0 3.33-.83 9.63 9.63 0 0 1 .8 3.49H9.49ZM6.7 1.29a9.54 9.54 0 0 0-2 2.48A8.18 8.18 0 0 1 3.67 3 8 8 0 0 1 6.7 1.29ZM3 3.63a9.43 9.43 0 0 0 1.31 1 10.83 10.83 0 0 0-.91 4H.94a8.05 8.05 0 0 1 2.06-5ZM.94 9.49H3.4a10.92 10.92 0 0 0 .91 4 8.69 8.69 0 0 0-1.31 1 8.05 8.05 0 0 1-2.06-5Zm2.73 5.58a8.1 8.1 0 0 1 1.06-.79 9.71 9.71 0 0 0 2 2.48 8 8 0 0 1-3.06-1.69Zm4.84 1.83a8.49 8.49 0 0 1-2.92-3.09 8.33 8.33 0 0 1 2.92-.74Zm0-4.76a9 9 0 0 0-3.33.86 9.68 9.68 0 0 1-.8-3.49h4.13Zm0-3.58H4.38a9.63 9.63 0 0 1 .8-3.49 9 9 0 0 0 3.33.83Zm0-3.56a7.91 7.91 0 0 1-2.92-.74 8.46 8.46 0 0 1 2.92-3.11Z"/><path class="cls-1" d="m16.91 15.48-4.58-3.77.74 5.88 1.35-.74 1.26 2.28 1.14-.63-1.26-2.28 1.35-.74z"/></g></g></svg>